<svg width="1200" height="780" viewBox="0 0 1200 780" fill="none" xmlns="http://www.w3.org/2000/svg">
<defs>
<linearGradient id="bg" x1="0" y1="0" x2="1200" y2="780"><stop stop-color="#060606"/><stop offset="1" stop-color="#100C07"/></linearGradient>
<linearGradient id="gold" x1="0" y1="0" x2="1" y2="1"><stop stop-color="#F5E1A3"/><stop offset="0.45" stop-color="#C79C4B"/><stop offset="1" stop-color="#EED17B"/></linearGradient>
</defs>
<rect width="1200" height="780" fill="url(#bg)"/>
<ellipse cx="600" cy="170" rx="420" ry="180" fill="#D0A44A" fill-opacity="0.09"/>
<rect x="210" y="520" width="780" height="125" rx="24" fill="#0C0B09" stroke="url(#gold)" stroke-width="3"/>
<path d="M300 520V360M420 520V320M780 520V320M900 520V360" stroke="url(#gold)" stroke-width="5" stroke-linecap="round"/>
<path d="M300 365C350 290 430 250 600 250C770 250 850 290 900 365" stroke="url(#gold)" stroke-width="4"/>
<circle cx="600" cy="210" r="76" fill="#12100B" stroke="url(#gold)" stroke-width="4"/>
<path d="M564 185L600 136L636 185L694 196L650 236L660 294L600 262L540 294L550 236L506 196L564 185Z" fill="url(#gold)"/>
<rect x="305" y="620" width="150" height="35" rx="17.5" fill="#12110C" stroke="url(#gold)" stroke-width="3"/>
<rect x="745" y="620" width="150" height="35" rx="17.5" fill="#12110C" stroke="url(#gold)" stroke-width="3"/>
<circle cx="380" cy="590" r="34" fill="#12100B" stroke="url(#gold)" stroke-width="3"/>
<circle cx="820" cy="590" r="34" fill="#12100B" stroke="url(#gold)" stroke-width="3"/>
<circle cx="180" cy="145" r="11" fill="#F0D171"/>
<circle cx="1030" cy="140" r="15" fill="#F0D171"/>
<circle cx="930" cy="90" r="7" fill="#F0D171"/>
<text x="70" y="90" fill="#F1D585" font-size="42" font-family="Georgia, serif">Eventos privados y corporativos</text>
</svg>