<svg width="1600" height="900" viewBox="0 0 1600 900" fill="none" xmlns="http://www.w3.org/2000/svg">
<defs>
  <linearGradient id="bg" x1="0" y1="0" x2="1600" y2="900" gradientUnits="userSpaceOnUse">
    <stop stop-color="#060606"/>
    <stop offset="0.48" stop-color="#110D08"/>
    <stop offset="1" stop-color="#050505"/>
  </linearGradient>
  <radialGradient id="glow1" cx="0" cy="0" r="1" gradientUnits="userSpaceOnUse" gradientTransform="translate(800 200) rotate(90) scale(280 700)">
    <stop stop-color="#FFE9A8" stop-opacity="0.32"/>
    <stop offset="1" stop-color="#FFE9A8" stop-opacity="0"/>
  </radialGradient>
  <linearGradient id="gold" x1="0" y1="0" x2="1" y2="1">
    <stop stop-color="#F4E6A1"/>
    <stop offset="0.45" stop-color="#C9A353"/>
    <stop offset="1" stop-color="#F0D98D"/>
  </linearGradient>
  <linearGradient id="soft" x1="0" y1="0" x2="0" y2="1">
    <stop stop-color="#2A241A"/>
    <stop offset="1" stop-color="#0B0A08"/>
  </linearGradient>
  <filter id="blur40"><feGaussianBlur stdDeviation="40"/></filter>
  <filter id="blur18"><feGaussianBlur stdDeviation="18"/></filter>
</defs>
<rect width="1600" height="900" fill="url(#bg)"/>
<ellipse cx="800" cy="210" rx="650" ry="260" fill="url(#glow1)"/>
<ellipse cx="800" cy="740" rx="700" ry="120" fill="#100D09"/>
<g opacity="0.4" filter="url(#blur18)">
  <circle cx="260" cy="220" r="42" fill="#F7D980"/>
  <circle cx="460" cy="160" r="30" fill="#F7D980"/>
  <circle cx="1320" cy="190" r="55" fill="#F7D980"/>
  <circle cx="1140" cy="135" r="26" fill="#F7D980"/>
</g>
<g opacity="0.9">
  <path d="M520 640C520 580 560 520 620 500H980C1040 520 1080 580 1080 640V690H520V640Z" fill="url(#soft)" stroke="url(#gold)" stroke-opacity="0.65" stroke-width="3"/>
  <rect x="600" y="485" width="400" height="20" rx="10" fill="url(#gold)" fill-opacity="0.8"/>
  <path d="M630 485V390M730 485V360M870 485V360M970 485V390" stroke="url(#gold)" stroke-width="6" stroke-linecap="round"/>
  <path d="M630 395C680 330 720 315 800 315C880 315 920 330 970 395" stroke="url(#gold)" stroke-width="5" stroke-linecap="round"/>
  <circle cx="800" cy="300" r="52" fill="#15100B" stroke="url(#gold)" stroke-width="4"/>
  <path d="M780 292L800 250L820 292L866 298L832 329L842 375L800 352L758 375L768 329L734 298L780 292Z" fill="url(#gold)" fill-opacity="0.92"/>
</g>
<g>
  <rect x="190" y="595" width="220" height="90" rx="22" fill="#0C0B09" stroke="url(#gold)" stroke-opacity="0.65" stroke-width="3"/>
  <rect x="230" y="558" width="140" height="55" rx="20" fill="#11100C" stroke="url(#gold)" stroke-opacity="0.55" stroke-width="3"/>
  <rect x="1200" y="595" width="220" height="90" rx="22" fill="#0C0B09" stroke="url(#gold)" stroke-opacity="0.65" stroke-width="3"/>
  <rect x="1240" y="558" width="140" height="55" rx="20" fill="#11100C" stroke="url(#gold)" stroke-opacity="0.55" stroke-width="3"/>
  <circle cx="280" cy="560" r="18" fill="#F5DA85" fill-opacity="0.25" filter="url(#blur18)"/>
  <circle cx="1320" cy="560" r="18" fill="#F5DA85" fill-opacity="0.25" filter="url(#blur18)"/>
</g>
<g opacity="0.9">
  <ellipse cx="460" cy="685" rx="95" ry="28" fill="#090909"/>
  <ellipse cx="1140" cy="685" rx="95" ry="28" fill="#090909"/>
  <g stroke="url(#gold)" stroke-width="4">
    <path d="M370 652H550"/>
    <path d="M390 652V598M530 652V598"/>
    <path d="M1050 652H1230"/>
    <path d="M1070 652V598M1210 652V598"/>
  </g>
  <circle cx="460" cy="592" r="62" fill="#0D0C0A" stroke="url(#gold)" stroke-opacity="0.75" stroke-width="4"/>
  <circle cx="1140" cy="592" r="62" fill="#0D0C0A" stroke="url(#gold)" stroke-opacity="0.75" stroke-width="4"/>
  <circle cx="460" cy="592" r="8" fill="#F4D27A"/>
  <circle cx="1140" cy="592" r="8" fill="#F4D27A"/>
</g>
<g opacity="0.16">
  <path d="M0 780C260 710 520 690 800 710C1080 730 1350 720 1600 660V900H0V780Z" fill="#F0D98D"/>
</g>
</svg>