<svg width="1200" height="780" viewBox="0 0 1200 780" fill="none" xmlns="http://www.w3.org/2000/svg">
<defs>
<linearGradient id="bg" x1="0" y1="0" x2="1200" y2="780"><stop stop-color="#060606"/><stop offset="1" stop-color="#130D08"/></linearGradient>
<linearGradient id="gold" x1="0" y1="0" x2="1" y2="1"><stop stop-color="#F1D990"/><stop offset="0.5" stop-color="#C69B48"/><stop offset="1" stop-color="#F4E3A1"/></linearGradient>
</defs>
<rect width="1200" height="780" fill="url(#bg)"/>
<path d="M0 615C180 560 390 540 600 560C810 580 1030 575 1200 520V780H0V615Z" fill="#100D08"/>
<g opacity="0.35">
<circle cx="245" cy="150" r="48" fill="#F2D47F"/>
<circle cx="955" cy="170" r="62" fill="#F2D47F"/>
<circle cx="790" cy="110" r="30" fill="#F2D47F"/>
</g>
<g>
<rect x="180" y="520" width="250" height="105" rx="28" fill="#0D0C09" stroke="url(#gold)" stroke-width="3"/>
<rect x="770" y="520" width="250" height="105" rx="28" fill="#0D0C09" stroke="url(#gold)" stroke-width="3"/>
<rect x="245" y="475" width="120" height="60" rx="20" fill="#11100C" stroke="url(#gold)" stroke-width="3"/>
<rect x="835" y="475" width="120" height="60" rx="20" fill="#11100C" stroke="url(#gold)" stroke-width="3"/>
<circle cx="600" cy="515" r="88" fill="#0E0D0A" stroke="url(#gold)" stroke-width="3"/>
<circle cx="600" cy="515" r="12" fill="#D1A654"/>
<path d="M520 515H680M600 435V595" stroke="url(#gold)" stroke-opacity="0.42" stroke-width="3"/>
</g>
<path d="M600 185V420" stroke="url(#gold)" stroke-width="4" stroke-linecap="round"/>
<path d="M520 185C520 140 555 105 600 105C645 105 680 140 680 185" stroke="url(#gold)" stroke-width="4"/>
<circle cx="600" cy="215" r="46" fill="#14110C" stroke="url(#gold)" stroke-width="4"/>
<path d="M600 190L612 214L638 218L619 236L624 262L600 249L576 262L581 236L562 218L588 214L600 190Z" fill="url(#gold)"/>
<g opacity="0.85" stroke="url(#gold)" stroke-width="3">
<path d="M350 615L280 700"/>
<path d="M850 615L920 700"/>
<path d="M440 615L500 700"/>
<path d="M760 615L700 700"/>
</g>
<text x="70" y="90" fill="#F1D585" font-size="42" font-family="Georgia, serif">Salas lounge y montaje nocturno</text>
</svg>