<svg width="1200" height="780" viewBox="0 0 1200 780" fill="none" xmlns="http://www.w3.org/2000/svg">
<defs>
<linearGradient id="bg" x1="0" y1="0" x2="1200" y2="780"><stop stop-color="#060606"/><stop offset="1" stop-color="#110D08"/></linearGradient>
<linearGradient id="gold" x1="0" y1="0" x2="1" y2="1"><stop stop-color="#F4E3A3"/><stop offset="0.5" stop-color="#C8A04F"/><stop offset="1" stop-color="#F0D98C"/></linearGradient>
<radialGradient id="glow" cx="0" cy="0" r="1" gradientTransform="translate(600 180) rotate(90) scale(220 500)"><stop stop-color="#F6DD8A" stop-opacity="0.28"/><stop offset="1" stop-color="#F6DD8A" stop-opacity="0"/></radialGradient>
</defs>
<rect width="1200" height="780" fill="url(#bg)"/>
<ellipse cx="600" cy="170" rx="420" ry="180" fill="url(#glow)"/>
<path d="M390 560L510 560L600 392L690 560L810 560" stroke="url(#gold)" stroke-width="6" stroke-linecap="round" stroke-linejoin="round"/>
<path d="M420 560C470 500 515 468 600 468C685 468 730 500 780 560" stroke="url(#gold)" stroke-width="3" stroke-linecap="round"/>
<circle cx="600" cy="352" r="56" fill="#13100B" stroke="url(#gold)" stroke-width="4"/>
<path d="M580 344L600 304L620 344L666 350L632 381L642 427L600 404L558 427L568 381L534 350L580 344Z" fill="url(#gold)"/>
<rect x="525" y="560" width="150" height="140" rx="18" fill="#0D0C09" stroke="url(#gold)" stroke-opacity="0.6" stroke-width="3"/>
<path d="M600 560V700" stroke="url(#gold)" stroke-opacity="0.4" stroke-width="3"/>
<path d="M340 700L515 560M860 700L685 560" stroke="url(#gold)" stroke-opacity="0.3" stroke-width="3"/>
<g opacity="0.8">
<path d="M265 620C305 580 340 560 390 550" stroke="url(#gold)" stroke-width="3"/>
<path d="M935 620C895 580 860 560 810 550" stroke="url(#gold)" stroke-width="3"/>
<path d="M225 660C275 610 330 575 390 560" stroke="url(#gold)" stroke-width="3"/>
<path d="M975 660C925 610 870 575 810 560" stroke="url(#gold)" stroke-width="3"/>
</g>
<g opacity="0.9">
<rect x="130" y="560" width="120" height="34" rx="17" fill="#0E0D0A" stroke="url(#gold)" stroke-width="3"/>
<rect x="950" y="560" width="120" height="34" rx="17" fill="#0E0D0A" stroke="url(#gold)" stroke-width="3"/>
<circle cx="190" cy="530" r="28" fill="#12100C" stroke="url(#gold)" stroke-width="3"/>
<circle cx="1010" cy="530" r="28" fill="#12100C" stroke="url(#gold)" stroke-width="3"/>
</g>
<text x="70" y="90" fill="#F1D585" font-size="42" font-family="Georgia, serif">Bodas elegantes</text>
</svg>